<svg width="96" height="96" fill="none" xmlns="http://www.w3.org/2000/svg"><path d="M75 56c0 1.72-.62 3.296-1.65 4.515A6.987 6.987 0 0 1 76 66c0 1.067-.239 2.08-.666 2.984a7.166 7.166 0 0 0-2.098-1.036c-1.523-.457-3.453-.456-5.68.658a1 1 0 0 0 .895 1.789c1.771-.887 3.175-.842 4.21-.531a5.327 5.327 0 0 1 2.196 1.328c.034.034.07.065.106.093a5.5 5.5 0 0 1-6.912 8.14A5.978 5.978 0 0 1 64 81.001a5.99 5.99 0 0 1-1.81-.278L56 84l1.5-10.5.583.5c.028-.165.057-.362.088-.576.152-1.03.369-2.498.829-3.115l-.5-2C57.77 67.203 57 64.424 57 63c0-1.406.414-2.714 1.127-3.81.046-.038.088-.08.128-.125 2.061-2.4 5.83-1.995 7.47-.014a1 1 0 1 0 1.54-1.276c-1.417-1.71-3.873-2.608-6.245-2.306A7 7 0 0 1 75 56z" fill="#B2A1E6"/><path fill="#403366" d="M12 83.809h72v2H12z"/><path d="M43.92 77.617c6.336 5.96 12.582 6.619 12.582 6.619s3.309-5.39 2.537-13.96a87.98 87.98 0 0 1-7.285 4.106c-3.024 1.468-5.67 2.515-7.835 3.235z" fill="#8E7CBF"/><path d="M54.812 55.385C50.07 45.63 42.863 36.612 37.314 30.408l2.705-5.457-4.41-9.171-5.086 7.69-.948-.849c-2.306-1.876-2.54-2.464-4.004-1.783-1.465.682-1.232 1.27-1.173 4.171l.072 1.298-9.147-.599 4.405 9.072 6.079 1.268c1.448 8.133 4.071 19.406 8.814 29.16 2.366 4.778 5.165 8.33 7.915 10.982a100.342 100.342 0 0 0 8.223-3.456 66.9 66.9 0 0 0 7.773-4.334c-.313-3.889-1.354-8.238-3.72-13.015z" fill="#6C5C99"/><path d="M25.585 36.511L24.5 26l-9.5-.5 4.76 9.486 5.825 1.525zm11.791-6.041l-6.911-7.08 5.153-7.663L39.998 25l-2.622 5.47z" fill="#403366"/><rect x="50" y="12" width="38" height="20" rx="1" fill="#E6004C"/><path d="M57.994 19.337v2.573h2.405v1.444h-2.405v2.587h-1.638v-2.587h-2.392V21.91h2.392v-2.573h1.638zm6.878-1.912c.468 0 .888.07 1.261.209.377.134.698.322.962.565.264.243.466.533.605.871.142.334.214.702.214 1.105 0 .347-.05.667-.15.962a3.747 3.747 0 0 1-.396.845 6.007 6.007 0 0 1-.591.774c-.222.247-.458.498-.709.753l-1.852 1.898a6.31 6.31 0 0 1 .702-.162 3.62 3.62 0 0 1 .656-.065h1.768c.217 0 .388.06.514.182a.609.609 0 0 1 .188.468V27h-6.656v-.65c0-.126.026-.26.078-.403a.972.972 0 0 1 .273-.39l2.73-2.75c.234-.233.438-.457.611-.669.173-.212.316-.42.429-.624.113-.208.197-.414.254-.617.056-.208.084-.427.084-.657 0-.377-.091-.665-.273-.864-.178-.204-.45-.306-.819-.306a1.253 1.253 0 0 0-1.014.5c-.07.1-.126.209-.169.325-.07.195-.158.336-.267.423-.103.087-.246.13-.428.13a1.704 1.704 0 0 1-.293-.026l-1.066-.189a3.6 3.6 0 0 1 .396-1.235c.2-.35.445-.643.735-.877.295-.234.63-.407 1.008-.52a4.08 4.08 0 0 1 1.215-.175zm9.972 5.896h.975v1.131c0 .1-.035.186-.104.26-.065.074-.16.11-.286.11h-.585V27h-1.755v-2.177H69.28a.561.561 0 0 1-.344-.117.502.502 0 0 1-.189-.293l-.208-.994 4.381-5.89h1.924v5.792zm-1.755-2.47c0-.152.004-.314.013-.488.013-.177.03-.36.052-.546l-2.502 3.504h2.437v-2.47zm4.59 4.693h1.82v-4.777c0-.235.007-.48.02-.735l-1.073.89a.748.748 0 0 1-.208.124.673.673 0 0 1-.507-.039.692.692 0 0 1-.195-.163L76.899 20l2.951-2.476h1.664v8.021h1.56V27h-5.395v-1.456z" fill="#F4F2FF"/><path d="M49.383 73.398c-10-6-21.345-36.075-25.011-51.075-1.503 29 9.32 42.822 15.82 55.988l9.191-4.913z" fill="#403366"/><path fill-rule="evenodd" clip-rule="evenodd" d="M38.76 70.823a7 7 0 0 0-13.1-4.793 7 7 0 1 0-2.645 12.896c-.41-4.165 2.287-6.176 3.85-6.653a1 1 0 0 1 .584 1.913c-.807.246-2.575 1.402-2.47 4.15l.06-.029a8.501 8.501 0 0 0 12.7 6.562l.416-.02A6.967 6.967 0 0 0 42 86a6.97 6.97 0 0 0 4.383-1.542L56 84c-4-3-5.8-4.4-6.7-5.1l-.308-.24a7 7 0 0 0-8.815-6.42 8.548 8.548 0 0 0-1.417-1.417zm-.857 2.746a1 1 0 0 1-.471 1.333c-.491.235-1.822 1.384-1.32 3.903a1 1 0 0 1-1.961.39c-.694-3.481 1.165-5.498 2.418-6.097a1 1 0 0 1 1.334.47z" fill="#B2A1E6"/></svg>