<svg width="176" height="96" fill="none" xmlns="http://www.w3.org/2000/svg"><g clip-path="url(#clip0)"><path d="M97.729 90.796c-11.95 2.028-29.629-6.028-31.614-17.837-1.284-7.639 12.362-15.953 23.156-17.052 12.666-1.288 25.658 4.454 30.501 17.129 1.207 10.38-10.093 15.73-22.043 17.76z" fill="#161326"/><path d="M96.617 84.248c-11.95 2.03-29.29-4.038-30.905-13.661-1.043-6.225 12.785-13.46 23.557-14.69 12.639-1.444 25.389 2.867 29.82 13.114.883 8.476-10.521 13.209-22.472 15.237z" fill="#201C33"/><path d="M97.374 85.301C85.424 87.33 65.8 81.374 66.469 71.64c.343-4.994 12.785-13.46 23.556-14.69 12.64-1.444 26.968 5.492 27.851 13.968.883 8.476-8.552 12.354-20.502 14.383z" fill="#403366"/><path d="M66.37 69.214s-.094 1.231-.061 3.025c.71 4.267 4.858 9.861 17.882 11.3 11.013.843 33.157-.92 34.078-14.682 0 0 1.675 7.467.135 11.81-1.094 3.087-11.127 9.296-23.246 10.367-13.722 1.212-22.615-4.391-24.982-6.313-3.179-2.58-3.8-8.75-3.867-12.482-.19-1.137-.135-2.18.062-3.025z" fill="#201C33" stroke="#201C33" stroke-width="1.05"/><path d="M72.826 87.445l.04-3.904-.04-4.555m8.58 11.557v-8.131m8.47 9.584v-9.12m9.168 8.39v-9.722m7.921 7.6v-9.22m7.602 5.35V74.596" stroke="#403366" stroke-width="1.05"/><path d="M82.475 74l4.202-3.373a25.819 25.819 0 0 0 8.825 3.803l-.221-1.246c.318.092.927.211 1.536.33.407.08.813.16 1.133.231a6.753 6.753 0 0 0-1.885 1.912l-2.9.437-2.818-1.851L82.475 74z" fill="#8E7CBF"/><path d="M94.42 70.092l-2.232 2.694c2.149-.406 2.438-.583 2.231-2.694z" fill="#8E7CBF"/><path fill-rule="evenodd" clip-rule="evenodd" d="M83.597 62.271l7.775 1.254 3.118-1.283 2.765.978c1.144 2.945 3.98 4.146 5.711 4.879.169.071.327.138.473.202l-.334 3.489-1.46.32c-3.28-.57-7.399-2.341-10.351-4.92l.298 1.866c-3.681-1.48-4.544-2.544-6.713-5.22-.38-.468-.8-.986-1.282-1.565zm15.79 8.55l2.264-.905-2.052-1.319-.213 2.225zm-4.808-2.398l-1.68-3.068c2.032.806 2.283 1.034 1.68 3.068z" fill="#8E7CBF"/><path d="M90.602 76.569c-11.95 2.028-29.63-6.028-31.614-17.837-1.284-7.638 12.361-15.953 23.156-17.051 12.665-1.29 25.657 4.453 30.501 17.128 1.206 10.38-10.093 15.73-22.043 17.76z" fill="#161326"/><path d="M89.49 70.022C77.54 72.05 60.199 65.983 58.585 56.36 57.541 50.135 71.37 42.9 82.142 41.67c12.639-1.444 25.388 2.868 29.819 13.114.883 8.476-10.521 13.209-22.471 15.238z" fill="#201C33"/><path d="M90.246 71.074c-11.95 2.03-31.574-3.926-30.905-13.66.343-4.994 12.785-13.461 23.557-14.692 12.639-1.443 26.967 5.493 27.85 13.97.883 8.475-8.552 12.354-20.502 14.382z" fill="#403366"/><path d="M59.243 54.987s-.095 1.231-.062 3.025c.71 4.267 4.858 9.861 17.883 11.3 11.013.844 33.157-.92 34.078-14.681 0 0 1.674 7.466.135 11.809-1.094 3.087-11.128 9.296-23.246 10.367-13.723 1.212-22.615-4.391-24.983-6.313-3.178-2.579-3.799-8.749-3.867-12.482-.189-1.137-.134-2.18.062-3.025z" fill="#201C33" stroke="#201C33" stroke-width="1.05"/><path d="M65.698 73.219l.04-3.905-.04-4.555m8.58 11.558v-8.132m8.47 9.584V68.65m9.168 9.12V67.316m7.92 8.573V65.697m7.602 5.706V60.369" stroke="#403366" stroke-width="1.05"/><path d="M75.347 59.773L79.55 56.4a25.82 25.82 0 0 0 8.825 3.803l-.222-1.246c.318.092.927.211 1.537.33.406.08.812.16 1.132.232a6.752 6.752 0 0 0-1.884 1.911l-2.9.437-2.819-1.851-7.872-.243z" fill="#8E7CBF"/><path d="M87.292 55.865l-2.232 2.694c2.15-.406 2.438-.583 2.232-2.694z" fill="#8E7CBF"/><path fill-rule="evenodd" clip-rule="evenodd" d="M76.47 48.044l7.775 1.254 3.117-1.283 2.765.978c1.145 2.945 3.98 4.146 5.711 4.879.17.071.328.139.473.203l-.333 3.488-1.46.32c-3.28-.57-7.4-2.34-10.352-4.919l.298 1.865c-3.68-1.48-4.543-2.544-6.713-5.22-.38-.468-.8-.986-1.282-1.565zm15.789 8.55l2.264-.905-2.051-1.319-.213 2.225zm-4.808-2.398l-1.68-3.068c2.033.806 2.283 1.034 1.68 3.069z" fill="#8E7CBF"/><path d="M79.01 45.829c-7.732-9.335-9.594-28.674-.36-36.297 5.974-4.93 19.997 2.73 26.345 11.528 7.449 10.324 8.973 24.447.417 34.979-8.386 6.235-18.67-.875-26.402-10.21z" fill="#161326"/><path d="M84.125 41.593c-7.733-9.335-11.149-27.386-3.622-33.595 4.87-4.017 18.05 4.342 24.501 13.055 7.57 10.224 10.211 23.421 3.552 32.382-6.898 5.002-16.7-2.508-24.431-11.843z" fill="#201C33"/><path d="M83.591 42.772C75.86 33.437 71.205 13.465 79.97 9.177c4.496-2.2 18.05 4.342 24.501 13.056 7.57 10.224 8.726 26.1 1.827 31.103-6.898 5.003-14.975-1.229-22.707-10.564z" fill="#403366"/><path d="M82.02 7.88s-1.114.534-2.651 1.459c-3.341 2.748-6.112 9.138-.845 21.137 4.776 9.96 17.375 28.255 29.753 22.172 0 0-5.629 5.183-10.16 6.021-3.22.596-13.614-4.988-20.6-14.948-7.912-11.278-7.505-21.78-7.025-24.792.645-4.042 5.678-7.664 8.877-9.59.89-.732 1.82-1.206 2.65-1.459z" fill="#201C33" stroke="#201C33" stroke-width="1.05"/><path d="M69.46 22.586l3.402-1.918 3.893-1.91m-5.89 13.417l7.245-4.674m-3.486 13.131l7.317-5.565m-1.41 14.29l7.15-7.016m-.536 13.102c2.193-2.561 5.899-7.053 5.899-7.053m1.77 10.784l5.461-7.221" stroke="#403366" stroke-width="1.05"/><path d="M85.927 24.22l5.023 1.952a25.822 25.822 0 0 0 1.119 9.544l.968-.814c.08.32.28.908.482 1.496.134.391.268.783.366 1.096a6.752 6.752 0 0 0-2.597-.676l-1.829-2.294.194-3.366-3.726-6.939z" fill="#8E7CBF"/><path d="M95.285 32.61l-3.45-.586c1.427 1.658 1.724 1.82 3.45.585z" fill="#8E7CBF"/><path fill-rule="evenodd" clip-rule="evenodd" d="M96.646 19.326l2.802 7.361 2.67 2.058.535 2.884c-1.978 2.463-1.6 5.52-1.369 7.385l.061.511-3.188 1.456-1.007-1.105c-1.147-3.125-1.673-7.578-.916-11.424l-1.466 1.19c-.558-3.927-.069-5.206 1.164-8.422a142.9 142.9 0 0 0 .714-1.894zm.49 17.95l1.916 1.508.116-2.436-2.032.928zm-.327-5.363l1.818-2.99c.318 2.165.245 2.496-1.818 2.99z" fill="#8E7CBF"/><rect x="107" y="3" width="1" height="7" rx=".5" fill="#E6004C"/><rect x="111" y="6" width="1" height="7" rx=".5" transform="rotate(90 111 6)" fill="#E6004C"/><rect x="118" y="14" width="1" height="7" rx=".5" fill="#E6004C"/><rect x="122" y="17" width="1" height="7" rx=".5" transform="rotate(90 122 17)" fill="#E6004C"/></g><defs><clipPath id="clip0"><path fill="#fff" transform="translate(40)" d="M0 0h96v96H0z"/></clipPath></defs></svg>