<svg width="176" height="96" fill="none" xmlns="http://www.w3.org/2000/svg"><path d="M48.5 21.5h1v51h-1v-51z" stroke="#403366" stroke-width="3" stroke-linejoin="round"/><mask id="a" fill="#fff"><rect x="49" y="20" width="83" height="54" rx="1"/></mask><rect x="49" y="20" width="83" height="54" rx="1" fill="#201C33" stroke="#6C5C99" stroke-width="6" stroke-linejoin="round" mask="url(#a)"/><path d="M92.61 57.336c-13.502-8.829-32.7-8.934-40.61-7.883V71h77v-6.832c-6.505 1.401-22.889 1.997-36.39-6.832z" fill="#332E4D"/><path fill-rule="evenodd" clip-rule="evenodd" d="M85 30.063V28h-2.25v2H83v.063h2zM73.75 28h4.5v2h-4.5v-2zm-4.5 0v2h-4.5v-2h4.5zm-9 0v2H60v.063h-2V28h2.25zM58 34.188h2v4.124h-2v-4.124zm0 8.25h2v4.124h-2v-4.124zm0 8.25h2v4.124h-2v-4.124zm0 8.25h2V59h.25v2H58v-2.063zM64.75 61v-2h4.5v2h-4.5zm9 0v-2h4.5v2h-4.5zm9 0v-2H83v-.063h2V61h-2.25zM85 54.812h-2v-4.124h2v4.124zm0-8.25h-2v-4.124h2v4.124zm0-8.25h-2v-4.124h2v4.124z" fill="#E6004C"/><rect width="27" height="33" rx="1" transform="matrix(-1 0 0 1 71 14)" fill="#E6004C"/><rect width="2" height="2" rx="1" transform="matrix(-1 0 0 1 49 31)" fill="#F4F2FF"/><rect width="2" height="2" rx="1" transform="matrix(-1 0 0 1 49 36)" fill="#F4F2FF"/><rect width="17" height="2" rx="1" transform="matrix(-1 0 0 1 68 31)" fill="#F4F2FF"/><rect width="17" height="2" rx="1" transform="matrix(-1 0 0 1 68 36)" fill="#F4F2FF"/><rect width="2" height="2" rx="1" transform="matrix(-1 0 0 1 49 41)" fill="#F4F2FF"/><rect width="17" height="2" rx="1" transform="matrix(-1 0 0 1 68 41)" fill="#F4F2FF"/><path d="M65.24 21.744L68 27H47v-6.768a.5.5 0 0 1 .858-.349l3.843 3.952a.5.5 0 0 0 .649.058l3.36-2.4a.5.5 0 0 1 .58 0l3.45 2.464a.5.5 0 0 0 .538.027l4.272-2.441a.5.5 0 0 1 .69.201z" fill="#F4F2FF"/><path fill="#332E4D" d="M121 27h4v4h-4zm0 7h4v4h-4zm0 6h4v4h-4z"/><circle cx="123" cy="50" r="3" fill="#332E4D"/><path fill="#403366" d="M99 79H84v-5h15z"/><path fill="#201C33" d="M82 74h2v5h-2z"/><path d="M68 82a3 3 0 0 1 3-3h36a3 3 0 0 1 3 3H68z" fill="#403366"/><path d="M70 82a3 3 0 0 1 3-3h36a3 3 0 0 1 3 3H70z" fill="#6C5C99"/></svg>