<svg width="72" height="80" fill="none" xmlns="http://www.w3.org/2000/svg"><path fill-rule="evenodd" clip-rule="evenodd" d="M62.074 24.143a2.75 2.75 0 1 0 4.809 2.67 2.75 2.75 0 0 0-4.809-2.67zm-2.404-1.335a5.5 5.5 0 1 0 9.617 5.34 5.5 5.5 0 0 0-9.617-5.34z" fill="#E6004C"/><path d="M49.312 5.099l-3.279-1.82-1.213 2.185 3.279 1.82-1.82 3.28 2.185 1.213 1.82-3.279 3.279 1.82 1.213-2.185-3.278-1.82 1.82-3.28-2.186-1.213-1.82 3.279z" fill="#E6004C"/><path d="M23.193 23.34a5.262 5.262 0 0 0-1.828-.053 4.148 4.148 0 0 0-.922.248c.161-1.799 1.286-5.41 1.286-5.41s1.152 3.422 1.464 5.215zm21.178 6.023a4.083 4.083 0 0 1 2.561.191c-.036-2.005-.439-4.998-.439-4.998s-1.46 2.924-2.122 4.807z" fill="#B2ADCC"/><path d="M45.71 30.419a2.97 2.97 0 0 0-3.282 2.508l-1.178 8.916v3.61c0 2.217-1.673 4.022-3.919 4.022-1.497 0-2.77-.856-3.431-2.086a8.53 8.53 0 0 1-.625.35c.047 1.198-.463 2.654-1.378 3.396 1.444 1.284 2.671 3.25 2.671 6.178a.619.619 0 0 1-1.237 0c0-2.747-1.23-4.461-2.596-5.538a3.84 3.84 0 0 1-.418.115l-6.522 1.536-.283-1.204 6.536-1.54a2.545 2.545 0 0 0 1.938-3.103l-.001-.004-.001-.003a2.542 2.542 0 0 0-3.1-1.94l-.005.001-7.502 1.416v.003l-1.13.282a2.051 2.051 0 0 0-1.47 2.59c.834 2.722 2.243 7.235 2.6 7.814.89 1.486 1.783 2.462 3.705 2.462h14.533a5.337 5.337 0 0 0 5.298-4.6l3.329-21.976c.187-1.533-.938-2.973-2.532-3.206z" fill="#797399"/><path d="M21.231 45.755l5.168-.93v-5.353c0-.387.056-.76.16-1.112l-1.555-11.477c-.188-1.58-1.657-2.737-3.251-2.55-1.594.185-2.766 1.579-2.579 3.159l2.057 18.263zm6.406-1.154l.959-.172a3.783 3.783 0 0 1 4.361 2.146c.29-.436.455-.96.455-1.534v-5.57c0-1.53-1.3-2.783-2.887-2.783-1.589 0-2.888 1.252-2.888 2.784v5.13zm9.694 3.636c-1.475 0-2.681-1.253-2.681-2.784v-5.569c0-1.531 1.206-2.784 2.681-2.784s2.681 1.253 2.681 2.784v5.57c0 1.577-1.162 2.783-2.681 2.783z" fill="#797399"/><path d="M39.684 66.019l-.001-.002-.005-.013.006.015z" fill="#403366"/><path fill-rule="evenodd" clip-rule="evenodd" d="M25.544 61.943v-.505h15.433c.268.955 1.021 3.323 2.15 4.349.242.22.269.637-.046.731-.403.12-.888.169-1.34.043.267.69.595 1.291.985 1.687.23.234.245.636-.072.722-.531.143-1.255.247-1.817.099v6.394c0 .275-.237.484-.476.347-1.189-.681-1.918-2.317-2.043-3.096-.97 1.097-.58 2.272-.064 3.322.141.29-.08.616-.387.517-1.802-.58-2.61-2.726-2.798-3.84-.482 2.796-1.613 3.781-2.559 3.98-.32.067-.448-.309-.25-.57 1.365-1.79.374-3.298-1.126-3.11-1.102.313-.768 1.582-.454 2.408.108.284-.107.576-.399.492-1.713-.49-2.317-2.276-2.253-3.2-.49 2.036-1.869 2.84-3 3.022-.382.061-.491-.445-.262-.758.61-.834.782-1.894.809-2.815v-3.608c-.61.207-1.31.165-1.824.019-.316-.09-.295-.504-.065-.738 1.147-1.165 1.756-4.103 1.858-5.892zm5.393 2.794a.619.619 0 0 0-1.237 0c0 .632-.003 1.336-.14 1.955-.138.62-.381 1.017-.756 1.205a.619.619 0 0 0 .554 1.106c.863-.431 1.238-1.271 1.41-2.043.17-.763.17-1.592.17-2.197v-.026zm4.125 1.857a.619.619 0 0 0-.619.619c0 .59.117 1.163.227 1.577a7.753 7.753 0 0 0 .207.655l.01.027a.88.88 0 0 1 .006.015l.005.012v.003l.002.002a.619.619 0 0 0 1.149-.458l-.002-.006a.847.847 0 0 1-.005-.014l-.006-.014a6.476 6.476 0 0 1-.17-.541 5.065 5.065 0 0 1-.185-1.258.619.619 0 0 0-.62-.62zm2.686-2.605a.619.619 0 0 1 .537-.69l1.399 2.719v.001c.08.18.146.66-.126.863a.619.619 0 0 1-.866-.123c-.017-.023 0 0 0 0v-.001l-.002-.001-.001-.002-.004-.005-.01-.014a3.107 3.107 0 0 1-.12-.188 4.864 4.864 0 0 1-.27-.531 7.327 7.327 0 0 1-.537-2.028zm1.936 2.03v.001c.023.038-.027-.066-.006-.016-.165-.376-.608-1.418-.702-2.168a.619.619 0 0 0-.691-.538l1.398 2.719.002.003-.001-.001z" fill="#403366"/><path d="M30.363 49.24c-.093.003-.185.051-.231.052-1.577.315-2.327-2.045-.805-2.685.092-.049.185-.05.277-.1 1.434-.45 6.003-.18 6.003-.18s-3.81 2.462-5.244 2.914zm5.525-3.177v-.237c.096-1.662 2.597-1.756 2.838-.142.015.102.044.142.048.285.048 1.519-1.347 5.98-1.347 5.98s-1.491-4.366-1.54-5.886z" fill="#B2ADCC"/></svg>