<svg width="470" height="260" fill="none" xmlns="http://www.w3.org/2000/svg"><circle cx="220.354" cy="150.708" r="68.353" fill="#403366"/><mask id="a" maskUnits="userSpaceOnUse" x="152" y="82" width="137" height="138"><circle cx="220.354" cy="150.708" r="68.353" fill="#403366"/></mask><g mask="url(#a)" fill="#6C5C99"><rect x="129.214" y="123.855" width="71.608" height="26.853" rx="13.427"/><rect x="149.807" y="189.088" width="71.643" height="19.738" rx="9.869"/><rect x="239.069" y="166.983" width="71.608" height="26.853" rx="13.427"/><rect x="230.117" y="91.305" width="71.608" height="26.853" rx="13.427"/><rect x="105.213" y="147.418" width="71.608" height="15.461" rx="7.73"/><rect x="265.921" y="155.591" width="71.608" height="15.461" rx="7.73"/></g><circle cx="220.354" cy="150.708" r="68.353" fill="#403366"/><mask id="b" maskUnits="userSpaceOnUse" x="152" y="82" width="137" height="138"><circle cx="220.354" cy="150.708" r="68.353" fill="#403366"/></mask><g mask="url(#b)" fill="#6C5C99"><rect x="129.214" y="123.855" width="71.608" height="26.853" rx="13.427"/><rect x="149.807" y="189.088" width="71.643" height="19.738" rx="9.869"/><rect x="239.069" y="166.983" width="71.608" height="26.853" rx="13.427"/><rect x="230.117" y="91.305" width="71.608" height="26.853" rx="13.427"/><rect x="105.213" y="147.418" width="71.608" height="15.461" rx="7.73"/><rect x="265.921" y="155.591" width="71.608" height="15.461" rx="7.73"/></g><path fill="#F4F2FF" d="M253.616 18.022h5.117v86.264h-5.117z"/><path fill="#E6004C" d="M258.734 18h23.394v27.972h-23.394zm27.017 6.064h23.423V52.36h-23.423z"/><g filter="url(#filter0_d)" fill="#B2ADCC"><rect x="115.22" y="197.911" width="1.333" height="6.667" rx=".667" transform="rotate(-30 115.22 197.911)"/><rect x="120.018" y="198.22" width="1.333" height="6.667" rx=".667" transform="rotate(60 120.018 198.22)"/></g><g filter="url(#filter1_d)" fill="#B2ADCC"><rect x="56.333" y="85.667" width="1.333" height="6.667" rx=".667"/><rect x="60.334" y="88.333" width="1.333" height="6.667" rx=".667" transform="rotate(90 60.334 88.333)"/></g><g opacity=".4" filter="url(#filter2_d)" fill="#B2ADCC"><rect x="90.429" y="17.686" width="1.372" height="6.858" rx=".686"/><rect x="94.544" y="20.429" width="1.372" height="6.858" rx=".686" transform="rotate(90 94.544 20.429)"/></g><g filter="url(#filter3_d)" fill="#B2ADCC"><rect x="208.333" y="44.667" width="1.333" height="6.667" rx=".667"/><rect x="212.333" y="47.333" width="1.333" height="6.667" rx=".667" transform="rotate(90 212.333 47.333)"/></g><g filter="url(#filter4_d)" fill="#B2ADCC"><rect x="368.333" y="154.667" width="1.333" height="6.667" rx=".667"/><rect x="372.333" y="157.333" width="1.333" height="6.667" rx=".667" transform="rotate(90 372.333 157.333)"/></g><g filter="url(#filter5_d)" fill="#B2ADCC"><rect x="10.333" y="177.667" width="1.333" height="6.667" rx=".667"/><rect x="14.334" y="180.333" width="1.333" height="6.667" rx=".667" transform="rotate(90 14.334 180.333)"/></g><g opacity=".4" filter="url(#filter6_d)" fill="#B2ADCC"><rect x="440.333" y="200.667" width="1.333" height="6.667" rx=".667"/><rect x="444.333" y="203.333" width="1.333" height="6.667" rx=".667" transform="rotate(90 444.333 203.333)"/></g><g filter="url(#filter7_d)" fill="#B2ADCC"><rect x="369.602" y="69.233" width="1.372" height="6.858" rx=".686" transform="rotate(28.372 369.602 69.233)"/><rect x="371.919" y="73.602" width="1.372" height="6.858" rx=".686" transform="rotate(118.372 371.919 73.602)"/></g><g filter="url(#filter8_d)" fill="#B2ADCC"><rect x="330.418" y="112.171" width="1.333" height="6.667" rx=".667" transform="rotate(28.372 330.418 112.171)"/><rect x="332.671" y="116.418" width="1.333" height="6.667" rx=".667" transform="rotate(118.372 332.671 116.418)"/></g><g opacity=".4" filter="url(#filter9_d)" fill="#B2ADCC"><rect x="416.814" y="106.628" width="1" height="5" rx=".5" transform="rotate(28.372 416.814 106.628)"/><rect x="418.502" y="109.813" width="1" height="5" rx=".5" transform="rotate(118.372 418.502 109.813)"/></g><g opacity=".4" filter="url(#filter10_d)" fill="#B2ADCC"><rect x="159.814" y="230.628" width="1" height="5" rx=".5" transform="rotate(28.372 159.814 230.628)"/><rect x="161.502" y="233.813" width="1" height="5" rx=".5" transform="rotate(118.372 161.502 233.813)"/></g><g opacity=".4" filter="url(#filter11_d)" fill="#B2ADCC"><rect x="54.814" y="135.628" width="1" height="5" rx=".5" transform="rotate(28.372 54.814 135.628)"/><rect x="56.503" y="138.813" width="1" height="5" rx=".5" transform="rotate(118.372 56.503 138.813)"/></g><g opacity=".7" fill="#F4F2FF"><rect x="65.916" y="227.417" width="2.167" height="10.833" rx="1.083" transform="rotate(90 65.916 227.417)"/><rect x="61.583" y="233.917" width="2.167" height="10.833" rx="1.083" transform="rotate(-180 61.583 233.917)"/></g><g opacity=".7" fill="#F4F2FF"><rect x="349.796" y="223.463" width="2.167" height="10.833" rx="1.083"/><rect x="356.296" y="227.796" width="2.167" height="10.833" rx="1.083" transform="rotate(90 356.296 227.796)"/></g><path transform="rotate(-9.337 1087.721 -543.08) skewX(.107)" fill="url(#paint0_linear)" d="M0 0h32.446v5H0z"/><path transform="rotate(26.2 -121.885 293.817) skewX(.107)" fill="url(#paint1_linear)" d="M0 0h32.446v5H0z"/><path transform="rotate(-4.982 1810.688 -3456.395) skewX(.037)" fill="url(#paint2_linear)" d="M0 0h51v6H0z"/><circle opacity=".5" cx="166" cy="73" r="5" fill="#E6004C"/><circle opacity=".5" cx="317" cy="182" r="6" fill="#E6004C"/><circle opacity=".5" cx="302.5" cy="73.5" r="3.5" fill="#E6004C"/><circle opacity=".5" cx="127" cy="130" r="3" fill="#E6004C"/><circle opacity=".5" cx="277" cy="217" r="3" fill="#E6004C"/><defs><filter id="filter0_d" x="112.187" y="195.187" width="10.555" height="10.555" filterUnits="userSpaceOnUse" color-interpolation-filters="sRGB"><feFlood flood-opacity="0" result="BackgroundImageFix"/><feColorMatrix in="SourceAlpha" values="0 0 0 0 0 0 0 0 0 0 0 0 0 0 0 0 0 0 127 0"/><feOffset/><feGaussianBlur stdDeviation="1.029"/><feColorMatrix values="0 0 0 0 1 0 0 0 0 0 0 0 0 0 0.333333 0 0 0 0.47 0"/><feBlend in2="BackgroundImageFix" result="effect1_dropShadow"/><feBlend in="SourceGraphic" in2="effect1_dropShadow" result="shape"/></filter><filter id="filter1_d" x="51.61" y="83.609" width="10.781" height="10.781" filterUnits="userSpaceOnUse" color-interpolation-filters="sRGB"><feFlood flood-opacity="0" result="BackgroundImageFix"/><feColorMatrix in="SourceAlpha" values="0 0 0 0 0 0 0 0 0 0 0 0 0 0 0 0 0 0 127 0"/><feOffset/><feGaussianBlur stdDeviation="1.029"/><feColorMatrix values="0 0 0 0 1 0 0 0 0 0 0 0 0 0 0.333333 0 0 0 0.47 0"/><feBlend in2="BackgroundImageFix" result="effect1_dropShadow"/><feBlend in="SourceGraphic" in2="effect1_dropShadow" result="shape"/></filter><filter id="filter2_d" x="85.629" y="15.628" width="10.973" height="10.973" filterUnits="userSpaceOnUse" color-interpolation-filters="sRGB"><feFlood flood-opacity="0" result="BackgroundImageFix"/><feColorMatrix in="SourceAlpha" values="0 0 0 0 0 0 0 0 0 0 0 0 0 0 0 0 0 0 127 0"/><feOffset/><feGaussianBlur stdDeviation="1.029"/><feColorMatrix values="0 0 0 0 1 0 0 0 0 0 0 0 0 0 0.333333 0 0 0 0.47 0"/><feBlend in2="BackgroundImageFix" result="effect1_dropShadow"/><feBlend in="SourceGraphic" in2="effect1_dropShadow" result="shape"/></filter><filter id="filter3_d" x="203.609" y="42.609" width="10.781" height="10.781" filterUnits="userSpaceOnUse" color-interpolation-filters="sRGB"><feFlood flood-opacity="0" result="BackgroundImageFix"/><feColorMatrix in="SourceAlpha" values="0 0 0 0 0 0 0 0 0 0 0 0 0 0 0 0 0 0 127 0"/><feOffset/><feGaussianBlur stdDeviation="1.029"/><feColorMatrix values="0 0 0 0 1 0 0 0 0 0 0 0 0 0 0.333333 0 0 0 0.47 0"/><feBlend in2="BackgroundImageFix" result="effect1_dropShadow"/><feBlend in="SourceGraphic" in2="effect1_dropShadow" result="shape"/></filter><filter id="filter4_d" x="363.609" y="152.609" width="10.781" height="10.781" filterUnits="userSpaceOnUse" color-interpolation-filters="sRGB"><feFlood flood-opacity="0" result="BackgroundImageFix"/><feColorMatrix in="SourceAlpha" values="0 0 0 0 0 0 0 0 0 0 0 0 0 0 0 0 0 0 127 0"/><feOffset/><feGaussianBlur stdDeviation="1.029"/><feColorMatrix values="0 0 0 0 1 0 0 0 0 0 0 0 0 0 0.333333 0 0 0 0.47 0"/><feBlend in2="BackgroundImageFix" result="effect1_dropShadow"/><feBlend in="SourceGraphic" in2="effect1_dropShadow" result="shape"/></filter><filter id="filter5_d" x="5.61" y="175.609" width="10.781" height="10.781" filterUnits="userSpaceOnUse" color-interpolation-filters="sRGB"><feFlood flood-opacity="0" result="BackgroundImageFix"/><feColorMatrix in="SourceAlpha" values="0 0 0 0 0 0 0 0 0 0 0 0 0 0 0 0 0 0 127 0"/><feOffset/><feGaussianBlur stdDeviation="1.029"/><feColorMatrix values="0 0 0 0 1 0 0 0 0 0 0 0 0 0 0.333333 0 0 0 0.47 0"/><feBlend in2="BackgroundImageFix" result="effect1_dropShadow"/><feBlend in="SourceGraphic" in2="effect1_dropShadow" result="shape"/></filter><filter id="filter6_d" x="435.609" y="198.609" width="10.781" height="10.781" filterUnits="userSpaceOnUse" color-interpolation-filters="sRGB"><feFlood flood-opacity="0" result="BackgroundImageFix"/><feColorMatrix in="SourceAlpha" values="0 0 0 0 0 0 0 0 0 0 0 0 0 0 0 0 0 0 127 0"/><feOffset/><feGaussianBlur stdDeviation="1.029"/><feColorMatrix values="0 0 0 0 1 0 0 0 0 0 0 0 0 0 0.333333 0 0 0 0.47 0"/><feBlend in2="BackgroundImageFix" result="effect1_dropShadow"/><feBlend in="SourceGraphic" in2="effect1_dropShadow" result="shape"/></filter><filter id="filter7_d" x="363.419" y="67.419" width="10.314" height="10.314" filterUnits="userSpaceOnUse" color-interpolation-filters="sRGB"><feFlood flood-opacity="0" result="BackgroundImageFix"/><feColorMatrix in="SourceAlpha" values="0 0 0 0 0 0 0 0 0 0 0 0 0 0 0 0 0 0 127 0"/><feOffset/><feGaussianBlur stdDeviation="1.029"/><feColorMatrix values="0 0 0 0 1 0 0 0 0 0 0 0 0 0 0.333333 0 0 0 0.47 0"/><feBlend in2="BackgroundImageFix" result="effect1_dropShadow"/><feBlend in="SourceGraphic" in2="effect1_dropShadow" result="shape"/></filter><filter id="filter8_d" x="324.114" y="110.113" width="10.614" height="10.614" filterUnits="userSpaceOnUse" color-interpolation-filters="sRGB"><feFlood flood-opacity="0" result="BackgroundImageFix"/><feColorMatrix in="SourceAlpha" values="0 0 0 0 0 0 0 0 0 0 0 0 0 0 0 0 0 0 127 0"/><feOffset/><feGaussianBlur stdDeviation="1.029"/><feColorMatrix values="0 0 0 0 1 0 0 0 0 0 0 0 0 0 0.333333 0 0 0 0.47 0"/><feBlend in2="BackgroundImageFix" result="effect1_dropShadow"/><feBlend in="SourceGraphic" in2="effect1_dropShadow" result="shape"/></filter><filter id="filter9_d" x="411.571" y="104.571" width="8.989" height="8.989" filterUnits="userSpaceOnUse" color-interpolation-filters="sRGB"><feFlood flood-opacity="0" result="BackgroundImageFix"/><feColorMatrix in="SourceAlpha" values="0 0 0 0 0 0 0 0 0 0 0 0 0 0 0 0 0 0 127 0"/><feOffset/><feGaussianBlur stdDeviation="1.029"/><feColorMatrix values="0 0 0 0 1 0 0 0 0 0 0 0 0 0 0.333333 0 0 0 0.47 0"/><feBlend in2="BackgroundImageFix" result="effect1_dropShadow"/><feBlend in="SourceGraphic" in2="effect1_dropShadow" result="shape"/></filter><filter id="filter10_d" x="154.571" y="228.571" width="8.989" height="8.989" filterUnits="userSpaceOnUse" color-interpolation-filters="sRGB"><feFlood flood-opacity="0" result="BackgroundImageFix"/><feColorMatrix in="SourceAlpha" values="0 0 0 0 0 0 0 0 0 0 0 0 0 0 0 0 0 0 127 0"/><feOffset/><feGaussianBlur stdDeviation="1.029"/><feColorMatrix values="0 0 0 0 1 0 0 0 0 0 0 0 0 0 0.333333 0 0 0 0.47 0"/><feBlend in2="BackgroundImageFix" result="effect1_dropShadow"/><feBlend in="SourceGraphic" in2="effect1_dropShadow" result="shape"/></filter><filter id="filter11_d" x="49.571" y="133.571" width="8.989" height="8.989" filterUnits="userSpaceOnUse" color-interpolation-filters="sRGB"><feFlood flood-opacity="0" result="BackgroundImageFix"/><feColorMatrix in="SourceAlpha" values="0 0 0 0 0 0 0 0 0 0 0 0 0 0 0 0 0 0 127 0"/><feOffset/><feGaussianBlur stdDeviation="1.029"/><feColorMatrix values="0 0 0 0 1 0 0 0 0 0 0 0 0 0 0.333333 0 0 0 0.47 0"/><feBlend in2="BackgroundImageFix" result="effect1_dropShadow"/><feBlend in="SourceGraphic" in2="effect1_dropShadow" result="shape"/></filter><linearGradient id="paint0_linear" x1="35.572" y1="3.777" x2="8.029" y2="16.752" gradientUnits="userSpaceOnUse"><stop stop-color="#E6004C" stop-opacity="0"/><stop offset="1" stop-color="#E6004C"/></linearGradient><linearGradient id="paint1_linear" x1="35.572" y1="3.777" x2="8.029" y2="16.752" gradientUnits="userSpaceOnUse"><stop stop-color="#E6004C" stop-opacity="0"/><stop offset="1" stop-color="#E6004C"/></linearGradient><linearGradient id="paint2_linear" x1="-6.845" y1="5.463" x2="50.105" y2="-.104" gradientUnits="userSpaceOnUse"><stop stop-color="#E6004D" stop-opacity="0"/><stop offset="1" stop-color="#E6004D"/></linearGradient></defs></svg>